<?xml version="1.0" standalone="no"?>
<!DOCTYPE svg PUBLIC "-//W3C//DTD SVG 20010904//EN"
 "http://www.w3.org/TR/2001/REC-SVG-20010904/DTD/svg10.dtd">
<svg version="1.0" xmlns="http://www.w3.org/2000/svg"
 width="1280.000000pt" height="1173.000000pt" viewBox="0 0 1280.000000 1173.000000"
 preserveAspectRatio="xMidYMid meet">
<metadata>
Created by potrace 1.15, written by Peter Selinger 2001-2017
</metadata>
<g transform="translate(0.000000,1173.000000) scale(0.100000,-0.100000)"
fill="#ffffff" stroke="none">
<path d="M8727 10115 l-657 -1315 -3235 0 -3235 0 0 -535 0 -535 -800 0 -800
0 0 -1865 0 -1865 800 0 800 0 0 -535 0 -535 1765 0 c971 0 1765 -2 1765 -5 0
-3 -241 -487 -535 -1076 -295 -588 -534 -1073 -531 -1077 7 -11 945 -477 949
-472 3 3 300 596 661 1318 l656 1312 3235 0 3235 0 0 2935 0 2935 -1765 0
c-971 0 -1765 2 -1765 5 0 3 241 487 535 1075 294 588 535 1072 535 1075 0 6
-936 475 -947 475 -5 0 -304 -592 -666 -1315z m-2124 -4250 l-1198 -2395
-1637 0 -1638 0 0 2395 0 2395 2835 0 2835 0 -1197 -2395z m5667 0 l0 -2395
-2835 0 -2835 0 1197 2395 1198 2395 1637 0 1638 0 0 -2395z m-10670 0 l0
-1335 -535 0 -535 0 0 1335 0 1335 535 0 535 0 0 -1335z"/>
<path d="M10932 5865 c-584 -1169 -1062 -2127 -1062 -2130 0 -3 479 -5 1065
-5 l1065 0 0 2130 c0 1172 -1 2130 -3 2130 -1 0 -480 -956 -1065 -2125z"/>
</g>
</svg>
